<?xml version="1.0"?><svg width="60" height="60" xmlns="http://www.w3.org/2000/svg">
 <title>Bubble Question Mark</title>

 <g>
  <title>Layer 1</title>
  <path fill="#B11E3E" fill-opacity="0.3" fill-rule="evenodd" stroke="#B11E3E" stroke-width="1" id="path839" d="m29.938713,2.781251c2.281853,0 4.449966,0.360958 6.427567,1.056134c1.9776,0.695163 3.719078,1.696182 5.240311,3.041667c1.521225,1.345484 2.714233,2.971924 3.561771,4.900463c0.869274,1.906112 1.269138,4.066683 1.269138,6.421294c0,4.215876 -1.005974,7.468742 -3.070492,9.800928c-2.042805,2.309763 -4.847866,3.842304 -8.433628,4.60475l0,1.351852c0,1.076382 -0.239609,2.042957 -0.695976,2.872684c-0.434631,0.807297 -1.079151,1.430119 -1.883236,1.901039c-0.782352,0.448494 -1.661425,0.675926 -2.661097,0.675926c-0.99967,0 -1.897947,-0.227432 -2.702034,-0.675926c-0.782351,-0.470921 -1.385931,-1.093742 -1.842299,-1.901039c-0.434645,-0.829727 -0.655037,-1.796303 -0.655037,-2.872684l0,-5.534147c0,-1.143667 0.198673,-2.05599 0.655037,-2.661457c0.456367,-0.605467 1.026579,-1.000872 1.678537,-1.225117c0.65196,-0.224245 1.643768,-0.4715 2.947676,-0.71817c3.390175,-0.650324 5.07655,-2.410299 5.07655,-5.280672c0,-1.166096 -0.479221,-2.206736 -1.391956,-3.126158c-0.891006,-0.941852 -2.064804,-1.394097 -3.520832,-1.394097c-1.347376,0 -2.410963,0.26446 -3.193316,0.802661c-0.760616,0.538201 -1.491079,1.334198 -2.251696,2.36574c-0.738882,1.009119 -1.4744,1.785297 -2.169815,2.323494c-0.673695,0.515774 -1.61039,0.76042 -2.783916,0.76042c-1.325642,0 -2.441814,-0.531534 -3.398012,-1.56308c-0.934465,-1.053972 -1.391958,-2.262583 -1.391958,-3.675345c0,-2.466742 0.768885,-4.644533 2.333576,-6.50579c1.564705,-1.86127 3.507362,-3.280092 5.854408,-4.266782c2.347044,-0.98669 4.675417,-1.478588 7.000729,-1.478588zm-0.32752,42.625583c1.021404,0 1.974787,0.284279 2.865793,0.844906c0.891006,0.560616 1.566368,1.297157 2.087936,2.239006c0.543304,0.919418 0.818802,1.923035 0.818802,2.99942c0,1.098812 -0.275497,2.142075 -0.818802,3.083916c-0.521568,0.919418 -1.216145,1.616314 -2.128876,2.154514c-0.891006,0.5382 -1.825184,0.802662 -2.824854,0.802662c-0.99967,0 -1.953051,-0.264462 -2.865795,-0.802662c-0.89101,-0.5382 -1.626514,-1.235096 -2.169815,-2.154514c-0.52157,-0.941841 -0.777859,-1.985104 -0.777859,-3.083916c0,-1.076385 0.256289,-2.080002 0.777859,-2.99942c0.543301,-0.941849 1.278805,-1.678375 2.169815,-2.239006c0.89101,-0.560627 1.844391,-0.844906 2.865795,-0.844906z"/>
 </g>
</svg>