<svg version="1.1" id="speak_bubbles" xmlns="http://www.w3.org/2000/svg" xmlns:xlink="http://www.w3.org/1999/xlink" x="0px" y="0px" viewBox="0 0 100 100" style="transform-origin: 50px 50px 0px;" xml:space="preserve"><g style="transform-origin: 50px 50px 0px;"><g style="transform-origin: 50px 50px 0px; transform: scale(0.51);"><g style="transform-origin: 50px 50px 0px; animation-duration: 1s; animation-delay: -1s; animation-direction: normal;" class=""><g><style type="text/css" class="ld ld-breath" style="transform-origin: 50px 50px 0px; animation-duration: 10s; animation-delay: -10s; animation-direction: normal;">.st0{fill:#849B87;stroke:#333333;stroke-width:3;stroke-miterlimit:10;} .st1{fill:#A0C8D7;stroke:#333333;stroke-width:3;stroke-miterlimit:10;} .st2{fill:#F5E6C8;} .st3{fill:#ABBD81;} .st4{fill:#F5E6C8;stroke:#000000;stroke-width:2.5;stroke-miterlimit:10;} .st5{fill:#333333;} .st6{fill:#F5E6C8;stroke:#000000;stroke-width:3.5;stroke-miterlimit:10;} .st7{fill:#849B87;} .st8{fill:#F5E6C8;stroke:#333333;stroke-width:4;stroke-miterlimit:10;} .st9{fill:#C33737;} .st10{fill:#A0C8D7;} .st11{fill:#F5E6C8;stroke:#333333;stroke-width:3;stroke-miterlimit:10;} .st12{fill:#A3A3A3;} .st13{fill:#F5E6C8;stroke:#000000;stroke-width:3.8621;stroke-miterlimit:10;} .st14{fill:#FFDC6C;} .st15{fill:#ABBD81;stroke:#333333;stroke-width:3;stroke-miterlimit:10;} .st16{fill:#E15B64;} .st17{fill:#F5E6C8;stroke:#333333;stroke-width:3.6781;stroke-miterlimit:10;} .st18{fill:#F5E6C8;stroke:#333333;stroke-width:2.7586;stroke-miterlimit:10;} .st19{fill:#F5E6C8;stroke:#333333;stroke-width:3.9518;stroke-miterlimit:10;} .st20{fill:#FFFFFF;stroke:#333333;stroke-width:3.9092;stroke-miterlimit:10;} .st21{fill:#FFFFFF;stroke:#333333;stroke-width:3.6699;stroke-miterlimit:10;} .st22{fill:#F5E6C8;stroke:#000000;stroke-width:3;stroke-miterlimit:10;} .st23{fill:#F47E60;} .st24{fill:#F8B26A;} .st25{fill:#FFFFFF;} .st26{fill:#F5E6C8;stroke:#000000;stroke-width:3.9059;stroke-miterlimit:10;} .st27{fill:#F5E6C8;stroke:#000000;stroke-width:4;stroke-miterlimit:10;} .st28{fill:#C33636;} .st29{fill:#F5E6C8;stroke:#000000;stroke-width:3.8153;stroke-miterlimit:10;} .st30{fill:#E0E0E0;} .st31{fill:#F5E6C8;stroke:#000000;stroke-width:2.9643;stroke-miterlimit:10;} .st32{fill:#E15B64;stroke:#000000;stroke-width:2.9419;stroke-miterlimit:10;} .st33{fill:#666666;} .st34{fill:#FCEDCE;} .st35{fill:#FFF2D9;} .st36{fill:#7A8F7C;} .st37{fill:#96B099;}</style><g class="ld ld-breath" style="transform-origin: 50px 50px 0px; animation-duration: 10s; animation-delay: -9.47368s; animation-direction: normal;"><path class="st1" d="M63.333,29.507H49.667c-3.958,0-7.167-3.209-7.167-7.167v-7.67c0-3.958,3.209-7.167,7.167-7.167h13.666 c3.958,0,7.167,3.209,7.167,7.167v7.67C70.5,26.298,67.291,29.507,63.333,29.507z" fill="#53A3DA" fill-opacity="0.8" fill-rule="evenodd" stroke="#444444" style="fill: rgb(83, 163, 218); stroke: rgb(68, 68, 68);"></path></g><g class="ld ld-breath" style="transform-origin: 50px 50px 0px; animation-duration: 10s; animation-delay: -8.94737s; animation-direction: normal;"><path class="st0" d="M54.017,24.712c-0.007-0.019-0.015-0.037-0.022-0.056c-0.954-2.411-3.16-4.101-5.731-4.104H23.209v0h-9.466 c-3.447,0-6.242,3.033-6.242,6.773v5.736h0.063v14.56c0,1.831,0.623,3.527,1.662,4.778c0.028,0.032,0.053,0.066,0.082,0.098 c0.017,0.02,0.036,0.038,0.054,0.058c1.127,1.206,2.673,1.952,4.381,1.952h18.717h11.336h4.463c2.735,0,5.053-1.911,5.897-4.568 c0.029-0.095,0.062-0.188,0.087-0.285c0.005-0.02,0.009-0.041,0.014-0.06c0.158-0.628,0.244-1.29,0.244-1.971V27.454 c0-0.864-0.14-1.697-0.391-2.47C54.078,24.893,54.052,24.801,54.017,24.712z" stroke="#444444" fill="#8DBF44" fill-opacity="0.8" fill-rule="evenodd" style="stroke: rgb(68, 68, 68); fill: rgb(141, 191, 68);"></path></g><g class="ld ld-breath" style="transform-origin: 50px 50px 0px; animation-duration: 10s; animation-delay: -8.42105s; animation-direction: normal;"><circle class="st2" cx="19.75" cy="37.529" r="3" fill="#ffffff" style="fill: rgb(255, 255, 255);"></circle></g><g class="ld ld-breath" style="transform-origin: 50px 50px 0px; animation-duration: 10s; animation-delay: -7.89474s; animation-direction: normal;"><circle class="st2" cx="31" cy="37.529" r="3" fill="#ffffff" style="fill: rgb(255, 255, 255);"></circle></g><g class="ld ld-breath" style="transform-origin: 50px 50px 0px; animation-duration: 10s; animation-delay: -7.36842s; animation-direction: normal;"><circle class="st2" cx="42.25" cy="37.529" r="3" fill="#ffffff" style="fill: rgb(255, 255, 255);"></circle></g><g class="ld ld-breath" style="transform-origin: 50px 50px 0px; animation-duration: 10s; animation-delay: -6.84211s; animation-direction: normal;"><path class="st15" d="M92.025,45.467c-0.037-0.102-0.07-0.205-0.112-0.305c-0.008-0.021-0.019-0.041-0.027-0.062 c-1.087-2.668-3.532-4.593-6.588-4.593h-0.373c-0.002,0-0.005,0-0.007,0H54.5H43.004c-4.187,0-7.58,3.394-7.58,7.58v6.42v16.42 c0,2.026,0.8,3.863,2.095,5.223c0.034,0.036,0.065,0.074,0.099,0.109c0.021,0.022,0.044,0.042,0.065,0.064 c1.289,1.341,3.06,2.184,5.085,2.184h0.236h22.73c1.778,7,6.766,11.848,13.766,13.991V78.507h5.42h0.38 c3.256,0,5.818-2.174,6.782-5.112c0.035-0.107,0.075-0.211,0.105-0.319c0.007-0.022,0.011-0.045,0.017-0.068 c0.189-0.662,0.296-1.359,0.296-2.081v-0.125V48.231v-0.144C92.5,47.164,92.327,46.284,92.025,45.467z" stroke="#444444" fill="#B11E3E" fill-opacity="0.8" fill-rule="evenodd" style="stroke: rgb(68, 68, 68); fill: rgb(177, 30, 62);"></path></g><g class="ld ld-breath" style="transform-origin: 50px 50px 0px; animation-duration: 10s; animation-delay: -6.31579s; animation-direction: normal;"><circle class="st2" cx="47.938" cy="60" r="4" fill="#ffffff" style="fill: rgb(255, 255, 255);"></circle></g><g class="ld ld-breath" style="transform-origin: 50px 50px 0px; animation-duration: 10s; animation-delay: -5.78947s; animation-direction: normal;"><circle class="st2" cx="62.938" cy="60" r="4" fill="#ffffff" style="fill: rgb(255, 255, 255);"></circle></g><g class="ld ld-breath" style="transform-origin: 50px 50px 0px; animation-duration: 10s; animation-delay: -5.26316s; animation-direction: normal;"><circle class="st2" cx="77.938" cy="60" r="4" fill="#ffffff" style="fill: rgb(255, 255, 255);"></circle></g><metadata xmlns:d="https://loading.io/stock/" class="ld ld-breath" style="transform-origin: 50px 50px 0px; animation-duration: 10s; animation-delay: -4.73684s; animation-direction: normal;">
<d:name class="ld ld-breath" style="transform-origin: 50px 50px 0px; animation-duration: 10s; animation-delay: -4.21053s; animation-direction: normal;">soliloquy</d:name>
<d:tags class="ld ld-breath" style="transform-origin: 50px 50px 0px; animation-duration: 10s; animation-delay: -3.68421s; animation-direction: normal;">speak,read,recite,talk,drama,soliloquy,conversation</d:tags>
<d:license class="ld ld-breath" style="transform-origin: 50px 50px 0px; animation-duration: 10s; animation-delay: -3.15789s; animation-direction: normal;">rf</d:license>
<d:slug class="ld ld-breath" style="transform-origin: 50px 50px 0px; animation-duration: 10s; animation-delay: -2.63158s; animation-direction: normal;">cm2fet</d:slug>
</metadata></g></g></g></g><style type="text/css" class="ld ld-breath" style="transform-origin: 50px 50px 0px; animation-duration: 10s; animation-delay: -2.10526s; animation-direction: normal;">path,ellipse,circle,rect,polygon,polyline,line { stroke-width: 0; }@keyframes ld-breath {
  0% {
    -webkit-transform: scale(0.86);
    transform: scale(0.86);
  }
  50% {
    -webkit-transform: scale(1.06);
    transform: scale(1.06);
  }
  100% {
    -webkit-transform: scale(0.86);
    transform: scale(0.86);
  }
}
@-webkit-keyframes ld-breath {
  0% {
    -webkit-transform: scale(0.86);
    transform: scale(0.86);
  }
  50% {
    -webkit-transform: scale(1.06);
    transform: scale(1.06);
  }
  100% {
    -webkit-transform: scale(0.86);
    transform: scale(0.86);
  }
}
.ld.ld-breath {
  -webkit-animation: ld-breath 1s infinite;
  animation: ld-breath 1s infinite;
}
</style></svg>